<?xml version="1.0" standalone="no"?><!DOCTYPE svg PUBLIC "-//W3C//DTD SVG 1.1//EN" "http://www.w3.org/Graphics/SVG/1.1/DTD/svg11.dtd"><svg t="1584855369833" class="icon" viewBox="0 0 1024 1024" version="1.1" xmlns="http://www.w3.org/2000/svg" p-id="18098" xmlns:xlink="http://www.w3.org/1999/xlink" width="200" height="200"><defs><style type="text/css"></style></defs><path d="M519.975078 0C242.442368 0 0 197.781931 0 443.41433c0 172.261682 108.461059 299.862928 255.202492 382.803739l-51.040498 153.121495c-6.380062 15.950156 3.190031 31.900312 19.140187 38.280374 3.190031 0 12.760125 6.380062 44.660436 6.380062 44.660436 0 114.841121-12.760125 191.401869-66.990654l9.570093-6.380063 63.800623-57.42056h6.380063c271.152648-12.760125 481.694704-207.352025 481.694704-446.604362 0-245.632399-223.302181-446.604361-500.834891-446.604361z m12.760124 641.196262H232.872274c-12.760125 0-22.330218-9.570093-22.330218-22.330218 0-12.760125 9.570093-22.330218 22.330218-22.330218h303.05296c12.760125 0 22.330218 9.570093 22.330218 22.330218-3.190031 15.950156-9.570093 22.330218-25.52025 22.330218z m0-153.121496H232.872274c-12.760125 0-22.330218-9.570093-22.330218-22.330218 0-12.760125 9.570093-22.330218 22.330218-22.330218h303.05296c12.760125 0 22.330218 9.570093 22.330218 22.330218-3.190031 12.760125-9.570093 22.330218-25.52025 22.330218z m0-156.311526H232.872274c-12.760125 0-22.330218-9.570093-22.330218-22.330218-3.190031-12.760125 6.380062-22.330218 22.330218-22.330218h303.05296c12.760125 0 22.330218 9.570093 22.330218 22.330218-3.190031 15.950156-9.570093 22.330218-25.52025 22.330218z m204.161994 245.632399c-3.190031 3.190031-9.570093 6.380062-15.950156 6.380062s-9.570093 0-15.950155-3.190031L606.105919 497.64486c-9.570093-6.380062-9.570093-19.140187-3.190031-28.710281 6.380062-9.570093 22.330218-9.570093 28.71028-3.190031l82.94081 70.180686 143.551402-169.071651c6.380062-9.570093 22.330218-9.570093 28.71028-3.190032 9.570093 6.380062 9.570093 19.140187 3.190032 28.710281l-153.121496 185.021807z" fill="#8a8a8a" p-id="18099"></path></svg>