<?xml version="1.0" standalone="no"?><!DOCTYPE svg PUBLIC "-//W3C//DTD SVG 1.1//EN" "http://www.w3.org/Graphics/SVG/1.1/DTD/svg11.dtd"><svg t="1584944985055" class="icon" viewBox="0 0 1024 1024" version="1.1" xmlns="http://www.w3.org/2000/svg" p-id="9079" xmlns:xlink="http://www.w3.org/1999/xlink" width="200" height="200"><defs><style type="text/css"></style></defs><path d="M517.640464 64.538899c-224.121454 0-418.359296 173.413562-418.359297 387.908773 0 150.536528 86.886883 264.125563 206.244295 334.856488l-40.543392 133.00627c-4.003174 13.519921 3.193739 27.859511 16.309454 32.485878 1.569752 0.552585 9.055237 6.217608 36.145222 6.217609 36.615942 0 92.069929-10.349719 154.268526-57.662281 11.45489-8.716522 17.042141-23.02132 8.480138-34.681894-8.550747-11.650341-25.598005-3.247974-37.443797 5.754051-56.225559 42.769083-108.221794 48.416709-135.76101 47.88152l38.874379-131.338281c0.348947-0.985444 0.647753-1.977028 0.896417-2.998287 2.90312-12.236696-2.789533-24.908296-13.781888-30.656207-117.199259-61.343113-194.491623-178.194448-194.491623-304.954457 0-191.93745 177.005366-346.957083 379.419426-346.957083 202.407919 0 364.841406 157.303652 364.841405 349.243149 0 189.190897-160.653957 339.683423-360.021633 345.538781-13.500479 0.391926-22.361287 8.28264-23.64963 21.970384-1.300622 13.668301 9.914814 20.782326 22.64679 23.692608l1.264806 0.28448c3.580548 0.843204 7.107885 0.843204 10.426467 0.166798 218.291678-9.04398 388.534014-179.844018 388.534014-389.644301 0-214.491119-180.171476-390.113999-404.299069-390.113998z" fill="#8a8a8a" p-id="9080"></path><path d="M285.924032 355.234607h243.199974c11.44261 0 18.544355-6.126534 18.544355-17.765619 0-11.631922-7.101745-19.973914-18.544355-19.973914H285.924032c-11.434423 0-18.543332 7.238868-18.543332 18.869767 0 11.631922 7.108908 18.869766 18.543332 18.869766zM285.924032 491.341494h243.199974c11.44261 0 18.544355-6.133697 18.544355-17.766642 0-11.637038-7.101745-19.980054-18.544355-19.980053H285.924032c-11.434423 0-18.543332 7.238868-18.543332 18.875906 0 11.632945 7.108908 18.87079 18.543332 18.870789zM285.924032 627.448382h243.199974c11.44261 0 18.544355-6.134721 18.544355-17.772782 0-11.631922-7.101745-19.967774-18.544355-19.967774H285.924032c-11.434423 0-18.543332 7.238868-18.543332 18.87079 0 11.637038 7.108908 18.869766 18.543332 18.869766zM668.337651 574.158688a17.154705 17.154705 0 0 0 12.588713 3.869121 17.155728 17.155728 0 0 0 11.636015-6.15621l125.632325-161.009044c6.054903-7.318686 5.033643-18.166755-2.285043-24.223704-7.324826-6.056949-18.167778-5.03262-24.226774 2.286066l-114.66146 147.750065-66.325591-62.0758c-7.317663-6.057973-18.164708-5.033643-24.222681 2.286066-6.056949 7.323802-5.033643 18.166755 2.28402 24.222681l79.580476 73.050759z" fill="#8a8a8a" p-id="9081"></path></svg>