<?xml version="1.0" standalone="no"?><!DOCTYPE svg PUBLIC "-//W3C//DTD SVG 1.1//EN" "http://www.w3.org/Graphics/SVG/1.1/DTD/svg11.dtd"><svg t="1585018053941" class="icon" viewBox="0 0 1024 1024" version="1.1" xmlns="http://www.w3.org/2000/svg" p-id="6287" xmlns:xlink="http://www.w3.org/1999/xlink" width="200" height="200"><defs><style type="text/css"></style></defs><path d="M353.620719 131.397105l112.646916-112.650471c24.993734-24.993734 65.516331-24.993734 90.510065 0L669.424616 131.397105h157.398837c35.347494 0 63.999889 28.654172 63.999889 63.999889v157.400616l113.471803 113.470025c24.993734 24.993734 24.993734 65.516331 0 90.510065l-113.471803 113.470025v158.037059c0 35.345716-28.652395 63.999889-63.999889 63.999889h-158.035281l-112.01225 112.01225c-24.993734 24.993734-65.516331 24.993734-90.510065 0l-112.01225-112.01225h-160.317944c-35.345716 0-63.999889-28.654172-63.999889-63.999889V667.965063l-111.18914-111.189141c-24.993734-24.993734-24.993734-65.516331 0-90.510065l111.18914-111.18914v-159.679723c0-35.347494 28.654172-63.999889 63.999889-63.999889h159.681501z m97.230054 509.328894l-138.278871-138.278871c-10.414204-10.414204-27.299508-10.414204-37.711935 0-10.414204 10.414204-10.414204 27.29773 0 37.711934l157.13395 157.13395c10.414204 10.414204 27.29773 10.414204 37.711934 0l321.812775-321.810997c10.412426-10.414204 10.412426-27.29773 0-37.711935-10.414204-10.414204-27.299508-10.414204-37.713712 0L450.850773 640.725999z" fill="#6BC9FF" p-id="6288"></path></svg>