<?xml version="1.0" standalone="no"?><!DOCTYPE svg PUBLIC "-//W3C//DTD SVG 1.1//EN" "http://www.w3.org/Graphics/SVG/1.1/DTD/svg11.dtd"><svg t="1585026958394" class="icon" viewBox="0 0 1024 1024" version="1.1" xmlns="http://www.w3.org/2000/svg" p-id="4194" xmlns:xlink="http://www.w3.org/1999/xlink" width="200" height="200"><defs><style type="text/css"></style></defs><path d="M821.248 998.4H202.752c-47.104 0-84.992-38.4-84.992-85.504V111.104c0-47.104 38.4-85.504 84.992-85.504h435.712c22.528 0 44.544 9.216 59.904 25.088L880.64 233.472c16.384 16.384 25.088 37.376 25.088 60.416v619.008C906.24 960 867.84 998.4 821.248 998.4zM202.752 83.968c-14.848 0-26.624 11.776-26.624 26.624v802.304c0 14.848 11.776 26.624 26.624 26.624h617.984c14.848 0 26.624-11.776 26.624-26.624v-619.52c0-7.168-2.56-13.824-7.68-18.944L657.408 92.16c-4.608-5.12-11.776-7.68-18.432-7.68-0.512-0.512-436.224-0.512-436.224-0.512z" fill="#1296DB" p-id="4195"></path><path d="M860.16 300.032H693.248c-33.28 0-60.416-27.136-60.416-60.416V68.096c0-16.384 13.312-29.184 29.184-29.184 16.384 0 29.184 13.312 29.184 29.184v171.52c0 1.024 1.024 2.048 2.048 2.048H860.16c16.384 0 29.184 13.312 29.184 29.184s-13.312 29.184-29.184 29.184z" fill="#1296DB" p-id="4196"></path><path d="M557.056 552.96h-194.56c-16.384 0-29.184-13.312-29.184-29.184 0-16.384 13.312-29.184 29.184-29.184h194.56c16.384 0 29.184 13.312 29.184 29.184 0.512 16.384-12.8 29.184-29.184 29.184zM519.68 692.736H362.496c-16.384 0-29.184-13.312-29.184-29.184 0-16.384 13.312-29.184 29.184-29.184H519.68c16.384 0 29.184 13.312 29.184 29.184s-12.8 29.184-29.184 29.184z m140.288-279.04H362.496c-16.384 0-29.184-13.312-29.184-29.184s13.312-29.184 29.184-29.184h297.472c16.384 0 29.184 13.312 29.184 29.184s-12.8 29.184-29.184 29.184z" fill="#0000FF" p-id="4197"></path><path d="M723.968 879.104c-4.608 0-8.704-1.024-12.8-2.56l-59.904-23.04-59.392 23.04c-11.264 4.096-23.552 3.072-33.28-3.584-9.728-6.656-15.872-17.92-15.872-29.696V686.08c0-16.384 13.312-29.184 29.184-29.184 16.384 0 29.184 13.312 29.184 29.184v124.416l37.376-14.336c8.192-3.072 17.408-2.56 25.088 0l37.376 14.336V695.808c0-16.384 13.312-29.184 29.184-29.184 16.384 0 29.184 13.312 29.184 29.184v147.456c0 11.776-5.632 23.04-15.872 29.696-5.12 4.096-12.288 6.144-19.456 6.144z m-80.384-28.16z" fill="#1296DB" p-id="4198"></path><path d="M652.8 745.984c-79.36 0-143.872-65.024-143.872-144.384S573.44 457.216 652.8 457.216 796.672 522.24 796.672 601.6 732.16 745.984 652.8 745.984z m0-230.4c-47.104 0-85.504 38.4-85.504 86.016s38.4 86.016 85.504 86.016 85.504-38.4 85.504-86.016-38.4-86.016-85.504-86.016z" fill="#1296DB" p-id="4199"></path></svg>