<?xml version="1.0" standalone="no"?><!DOCTYPE svg PUBLIC "-//W3C//DTD SVG 1.1//EN" "http://www.w3.org/Graphics/SVG/1.1/DTD/svg11.dtd"><svg t="1584940026199" class="icon" viewBox="0 0 1024 1024" version="1.1" xmlns="http://www.w3.org/2000/svg" p-id="10259" xmlns:xlink="http://www.w3.org/1999/xlink" width="200" height="200"><defs><style type="text/css"></style></defs><path d="M113.169549 10.239549H910.830451c38.39831 0 69.116959 31.230626 69.116959 69.116959v874.969502c0 38.39831-31.230626 69.628936-69.116959 69.628936-7.679662 0-14.847347-1.023955-22.015031-3.583842l-354.800389-118.266797c-14.335369-4.607797-29.694693-4.607797-44.030062 0l-354.800389 118.266797c-36.350401 12.287459-75.772666-7.679662-87.548148-44.030063-2.559887-7.167685-3.583842-14.335369-3.583842-22.015031V79.356508c-0.511977-37.886333 30.718648-69.116959 69.116959-69.116959z m182.26398 277.491791c-24.062941 0-43.518085 19.455144-43.518085 43.518085s19.455144 43.518085 43.518085 43.518085h433.64492c24.062941 0 43.518085-19.455144 43.518085-43.518085s-19.455144-43.518085-43.518085-43.518085h-433.64492z m0 242.677322c-24.062941 0-43.518085 19.455144-43.518085 43.518085s19.455144 43.518085 43.518085 43.518085h433.64492c24.062941 0 43.518085-19.455144 43.518085-43.518085s-19.455144-43.518085-43.518085-43.518085h-433.64492z" p-id="10260" fill="#8a8a8a"></path></svg>