<?xml version="1.0" standalone="no"?><!DOCTYPE svg PUBLIC "-//W3C//DTD SVG 1.1//EN" "http://www.w3.org/Graphics/SVG/1.1/DTD/svg11.dtd"><svg t="1585014794141" class="icon" viewBox="0 0 1024 1024" version="1.1" xmlns="http://www.w3.org/2000/svg" p-id="3584" xmlns:xlink="http://www.w3.org/1999/xlink" width="200" height="200"><defs><style type="text/css"></style></defs><path d="M896 25.6h-768C87.04 25.6 51.2 61.44 51.2 102.4v819.2c0 15.36 10.24 35.84 25.6 46.08 15.36 15.36 40.96 25.6 61.44 25.6h10.24C266.24 972.8 450.56 768 512 701.44c51.2 56.32 199.68 209.92 343.04 286.72 20.48 10.24 51.2 10.24 76.8-5.12 25.6-15.36 35.84-35.84 35.84-56.32V102.4c5.12-40.96-30.72-76.8-71.68-76.8zM921.6 921.6s-5.12 10.24-15.36 15.36c-10.24 5.12-20.48 5.12-25.6 5.12-163.84-87.04-348.16-291.84-348.16-296.96l-20.48-20.48-20.48 20.48c-66.56 76.8-250.88 276.48-353.28 296.96-5.12 0-20.48-5.12-30.72-10.24C102.4 926.72 102.4 921.6 102.4 921.6V102.4c0-15.36 10.24-25.6 25.6-25.6h768c15.36 0 25.6 10.24 25.6 25.6v819.2z" fill="#bfbfbf" p-id="3585"></path><path d="M732.16 235.52H291.84c-15.36 0-25.6 10.24-25.6 25.6s10.24 25.6 25.6 25.6h440.32c15.36 0 25.6-10.24 25.6-25.6s-10.24-25.6-25.6-25.6zM732.16 389.12H291.84c-15.36 0-25.6 10.24-25.6 25.6s10.24 25.6 25.6 25.6h440.32c15.36 0 25.6-10.24 25.6-25.6s-10.24-25.6-25.6-25.6z" fill="#bfbfbf" p-id="3586"></path></svg>