<?xml version="1.0" standalone="no"?><!DOCTYPE svg PUBLIC "-//W3C//DTD SVG 1.1//EN" "http://www.w3.org/Graphics/SVG/1.1/DTD/svg11.dtd"><svg t="1584960027272" class="icon" viewBox="0 0 1339 1024" version="1.1" xmlns="http://www.w3.org/2000/svg" p-id="11702" xmlns:xlink="http://www.w3.org/1999/xlink" width="261.5234375" height="200"><defs><style type="text/css"></style></defs><path d="M1105.447385 496.324923l-114.018462 130.244923-14.532923-14.808615a156.475077 156.475077 0 0 0-220.908308-2.678154 155.569231 155.569231 0 0 0-2.638769 220.356923l132.726154 135.601231c15.163077 15.517538 32.728615 27.175385 51.515077 34.973538H72.113231A71.995077 71.995077 0 0 1 0 928.098462V208.935385c0-39.778462 32.295385-71.955692 72.073846-71.955693H354.461538V78.769231a78.769231 78.769231 0 0 1 78.769231-78.769231h787.692308a78.769231 78.769231 0 0 1 78.769231 78.769231v342.094769a156.514462 156.514462 0 0 0-167.739077 45.134769l-26.505846 30.326154z m-865.122462-71.68v95.901539h528.659692v-95.862154H240.324923z m0 191.803077v95.901538h384.472615v-95.901538H240.324923z m964.056615-87.355077a60.179692 60.179692 0 0 1 84.755693-5.710769c25.009231 21.740308 27.569231 59.628308 5.750154 84.558769l-251.825231 287.665231a60.179692 60.179692 0 0 1-88.221539 2.441846l-132.726153-135.561846a59.864615 59.864615 0 0 1 1.024-84.755692 60.179692 60.179692 0 0 1 84.992 0.984615l87.236923 89.166769 209.014153-238.788923z" p-id="11703" fill="#0390fc"></path></svg>