<?xml version="1.0" standalone="no"?><!DOCTYPE svg PUBLIC "-//W3C//DTD SVG 1.1//EN" "http://www.w3.org/Graphics/SVG/1.1/DTD/svg11.dtd"><svg t="1584943700914" class="icon" viewBox="0 0 1024 1024" version="1.1" xmlns="http://www.w3.org/2000/svg" p-id="14393" xmlns:xlink="http://www.w3.org/1999/xlink" width="200" height="200"><defs><style type="text/css"></style></defs><path d="M260.44767687 919.77955555c-5.88426467 0-11.32721038-2.6479195-15.15198236-7.06111829-3.82477198-4.41319879-5.29583787-10.29746347-4.4131988-16.18172814l46.19147947-269.49933056L91.27506147 436.38719602c-5.44294457-5.29583787-7.35533056-13.09248967-5.00162446-20.30071353s8.53218418-12.35695616 16.03462144-13.53380864l270.52907748-39.27746902 120.92164324-245.22673834c3.38345187-6.76690489 10.29746347-11.03299698 17.79990072-11.03299584s14.41644885 4.26609209 17.79990187 11.03299584L650.28022499 363.27520483l270.67618304 39.27746902c7.50243726 1.02974691 13.68091534 6.32558478 16.03462258 13.53380864 2.3537061 7.20822499 0.44132011 15.00487566-5.0016256 20.30071353L736.19049131 627.18448526l46.19147946 269.49933056c1.32395918 7.50243726-1.76527929 15.00487566-7.94375736 19.41807445s-14.12223545 5.0016256-20.88914034 1.47106589l-241.99039318-127.24722802-241.99039203 127.24722802c-2.79502621 1.47106589-5.88426467 2.20659939-9.12061099 2.20659939zM147.76400441 435.94587705L322.23245767 606.00113152c4.70741219 4.56030549 6.76690489 11.18010368 5.73715798 17.50568733l-41.18985387 240.07800718 215.65830827-113.27209928c5.73715797-3.08923961 12.65116957-3.08923961 18.38832753 0l215.65830713 113.41920598-41.18985386-240.07800718c-1.02974691-6.47269149 1.02974691-12.94538297 5.73715797-17.50568733l174.46845326-170.05525561-241.10775296-35.01137578c-6.47269149-0.88264021-12.06274275-5.0016256-14.85776896-10.88588914l-107.82915357-218.45333334-107.82915356 218.45333334c-2.94213291 5.88426467-8.53218418 9.85614336-14.85776896 10.88588914l-241.25485966 34.86427022z m0 0" p-id="14394" fill="#8a8a8a"></path></svg>