<?xml version="1.0" standalone="no"?><!DOCTYPE svg PUBLIC "-//W3C//DTD SVG 1.1//EN"
        "http://www.w3.org/Graphics/SVG/1.1/DTD/svg11.dtd">
<svg t="1585027651385" class="icon" viewBox="0 0 1024 1024" version="1.1" xmlns="http://www.w3.org/2000/svg" p-id="1161"
     xmlns:xlink="http://www.w3.org/1999/xlink" width="200" height="200">
    <defs>
        <style type="text/css"></style>
    </defs>
    <path d="M 928.825 386.017 c 0.581238 -0.581238 1.1328 -1.1328 1.61785 -1.74781 c 0.487094 -0.611937 1.05708 -1.14815 1.46435 -1.81023 c 0.251733 -0.405229 0.345877 -0.850367 0.581238 -1.21057 c 0.396019 -0.77055 0.786922 -1.51245 1.10312 -2.29732 c 0.189312 -0.473791 0.487094 -0.86674 0.676405 -1.34053 c 0.190335 -0.756223 0.331551 -1.49403 0.472767 -2.29732 c 0.172939 -0.73985 0.317225 -1.47868 0.393973 -2.21853 c 0.124843 -1.0714 0.234337 -2.15611 0.23536 -3.22751 c -0.014326 -0.268106 0.079818 -0.487094 0.078795 -0.708128 c -0.030699 -0.473791 -0.280386 -0.818645 -0.345877 -1.25764 c -0.045025 -0.521886 -0.093121 -0.977257 -0.172939 -1.46537 c -0.062422 -0.379647 0.031722 -0.693802 -0.017396 -1.02535 c -0.016373 -0.10847 -0.095167 -0.187265 -0.13917 -0.297782 c -0.033769 -0.187265 0 -0.346901 -0.064468 -0.502443 c -0.23536 -0.960885 -0.771573 -1.77953 -1.13382 -2.68004 c -0.283456 -0.720408 -0.535189 -1.41421 -0.912789 -2.10801 c -0.298805 -0.645706 -0.662079 -1.25764 -1.05401 -1.80818 c -0.442068 -0.691755 -0.977257 -1.22694 -1.49607 -1.8747 c -0.487094 -0.675382 -1.03968 -1.5104 -1.74781 -2.21853 c -0.23536 -0.172939 -0.487094 -0.26606 -0.691755 -0.442068 c -0.36225 -0.328481 -0.881067 -0.597611 -1.33951 -0.926092 c -0.675382 -0.488117 -1.25867 -0.945535 -1.98317 -1.35383 c -0.832971 -0.459464 -1.63524 -0.881067 -2.53371 -1.21262 c -0.691755 -0.283456 -1.41626 -0.533143 -2.15918 -0.708128 c -0.626263 -0.190335 -1.24127 -0.521886 -1.90335 -0.645706 c -0.187265 -0.028653 -0.361227 -0.13917 -0.502443 -0.156566 l -0.016373 -0.016373 l -802.564 -141.685 c -9.55666 -1.68641 -19.142 3.01978 -23.6292 11.6329 c -4.46878 8.59373 -2.81716 19.1553 4.01648 25.9879 l 157.411 157.411 l -125.931 125.931 c -0.581238 0.580215 -0.768503 1.36816 -1.30369 1.96577 c -0.962931 1.21262 -1.81023 2.43956 -2.51836 3.77702 c -0.645706 1.30881 -1.10517 2.55008 -1.54417 3.87219 c -0.393973 1.36918 -0.629333 2.64627 -0.773619 4.07788 c -0.155543 1.54315 -0.094144 3.02285 0.096191 4.53222 c 0.062422 0.787946 -0.172939 1.59022 0.001023 2.32905 c 0.155543 0.819668 0.611937 1.43365 0.865717 2.22057 c 0.221034 0.754177 0.518816 1.43058 0.816598 2.17146 c 1.13382 2.42524 2.49073 4.66014 4.33268 6.50209 l 0.045025 0.045025 c 1.90437 1.84195 4.1229 3.24388 6.56451 4.36031 c 0.487094 0.204661 1.02331 0.456395 1.50938 0.661056 c 2.33211 0.914836 4.72358 1.4183 7.30436 1.41626 c 0.456395 -0.014326 0.804319 -0.107447 1.24127 -0.107447 c 1.34155 -0.079818 2.62887 -0.079818 3.98373 -0.425695 l 146.754 -32.9771 c 0.079818 0.611937 -0.014326 1.21057 0.144286 1.81023 l 78.6912 267.615 c 2.16941 7.11709 7.61647 12.7831 14.7929 14.9853 c 7.13142 2.21853 14.8778 0.678452 20.6524 -4.06048 l 519.147 -425.011 C 927.989 387.102 928.321 386.521 928.825 386.017 L 928.825 386.017 Z M 292.737 379.106 L 176.504 262.873 l 538.681 95.06 L 292.737 379.106 L 292.737 379.106 Z M 212.284 504.956 l 81.318 -81.318 l 361.308 -18.0849 L 212.284 504.956 L 212.284 504.956 Z M 406.012 756.865 l -68.9463 -234.292 l 489.425 -109.906 L 406.012 756.865 L 406.012 756.865 Z M 406.012 756.865"
          p-id="1162" fill="#00BFFF"></path>
</svg>