<?xml version="1.0" standalone="no"?><!DOCTYPE svg PUBLIC "-//W3C//DTD SVG 1.1//EN"
        "http://www.w3.org/Graphics/SVG/1.1/DTD/svg11.dtd">
<svg t="1584967495026" class="icon" viewBox="0 0 1024 1024" version="1.1" xmlns="http://www.w3.org/2000/svg"
     p-id="12681" xmlns:xlink="http://www.w3.org/1999/xlink" width="200" height="200">
    <defs>
        <style type="text/css"></style>
    </defs>
    <path d="M361.909081 1023.936004s-155.510281-134.647585 56.572464-424.933442c0 0 47.101056 44.15724 56.508469 83.642773 0 0 94.266108-69.691644 75.451284-253.104181 0 0 320.427973 208.946941 164.917693 592.090994 0 0 485.409662-134.711581 89.530404-719.763015 0 0-9.407412 81.27492-37.75764 109.113181 0 0-28.222236-273.966877-419.36579-410.982314 0 0 148.470721 280.942441-84.7947 487.585526 0 0-25.91838-62.71608-63.612024-116.088745 0 0-11.83926 130.039873-96.633961 201.971377-51.83676 44.15724-110.71308 394.72733 259.183801 450.467846z"
          p-id="12682" fill="#8a8a8a"></path>
</svg>