<?xml version="1.0" standalone="no"?><!DOCTYPE svg PUBLIC "-//W3C//DTD SVG 1.1//EN" "http://www.w3.org/Graphics/SVG/1.1/DTD/svg11.dtd"><svg t="1584946309267" class="icon" viewBox="0 0 1024 1024" version="1.1" xmlns="http://www.w3.org/2000/svg" p-id="10903" xmlns:xlink="http://www.w3.org/1999/xlink" width="200" height="200"><defs><style type="text/css"></style></defs><path d="M871.296 152.704c-198.464-198.464-520.192-198.464-718.656 0s-198.464 520.192 0 718.656 520.192 198.464 718.656 0C1069.76 672.896 1069.76 351.104 871.296 152.704zM492.352 213.824c0-10.624 8.704-19.328 19.328-19.328l0 0c10.624 0 19.328 8.704 19.328 19.328l0 152.32c0 10.624-8.704 19.328-19.328 19.328l0 0c-10.624 0-19.328-8.704-19.328-19.328L492.352 213.824zM670.528 660.608c-84.928 90.496-227.584 91.584-313.92 3.264C271.744 577.152 274.176 438.784 361.856 354.88c17.92-17.152 38.016-30.592 59.392-40.448C434.24 308.544 448.96 318.08 448.96 332.288l0 0c0 7.68-4.48 14.592-11.456 17.792C418.368 358.848 400.512 371.264 384.832 387.136c-68.544 69.76-67.648 182.784 1.856 251.52 69.376 68.608 181.12 68.672 250.496 0.064 69.504-68.672 70.464-181.632 2.112-251.392C623.744 371.392 605.888 359.04 586.816 350.208 579.84 347.008 575.424 340.096 575.424 332.48l0 0c0-14.272 14.784-23.744 27.712-17.792 21.76 10.048 42.176 23.872 60.288 41.472C747.008 437.376 750.4 575.616 670.528 660.608z" p-id="10904" fill="#8a8a8a"></path></svg>