<?xml version="1.0" standalone="no"?><!DOCTYPE svg PUBLIC "-//W3C//DTD SVG 1.1//EN" "http://www.w3.org/Graphics/SVG/1.1/DTD/svg11.dtd"><svg t="1585023751287" class="icon" viewBox="0 0 1024 1024" version="1.1" xmlns="http://www.w3.org/2000/svg" p-id="1183" xmlns:xlink="http://www.w3.org/1999/xlink" width="200" height="200"><defs><style type="text/css"></style></defs><path d="M421.51 379.94c123.85 0 224.609 100.759 224.609 224.609 0 123.847-100.759 224.604-224.609 224.604-123.847 0-224.606-100.757-224.606-224.604 0-123.849 100.758-224.609 224.606-224.609m0-75.144c-165.539 0-299.75 134.199-299.75 299.753 0 165.556 134.21 299.749 299.75 299.749 165.572 0 299.753-134.192 299.753-299.749 0-165.554-134.181-299.753-299.753-299.753z" fill="#0072DD" p-id="1184"></path><path d="M577.494 403.144l292.59-300.942 48.156 46.82-292.59 300.942z" fill="#0073DE" p-id="1185"></path><path d="M856.977 97.744H670.218v67.145h186.759v186.782h67.183V97.744z" fill="#0073DE" p-id="1186"></path></svg>