<?xml version="1.0" standalone="no"?><!DOCTYPE svg PUBLIC "-//W3C//DTD SVG 1.1//EN"
        "http://www.w3.org/Graphics/SVG/1.1/DTD/svg11.dtd">
<svg fill="#bfbfbf" t="1584780645742" class="icon" viewBox="0 0 1024 1024" version="1.1" xmlns="http://www.w3.org/2000/svg" p-id="8101"
     xmlns:xlink="http://www.w3.org/1999/xlink" width="200" height="200">
    <defs>
        <style type="text/css"></style>
    </defs>
    <path d="M838.656 212.992H187.392c-20.992 0-37.376 16.896-37.376 37.376v460.288c0 20.992 16.896 37.376 37.376 37.376h65.536l-18.432 134.144v1.536c0 6.144 5.12 11.776 11.776 11.776 2.048 0 4.608-0.512 6.144-2.048L473.6 748.032h365.056c20.992 0 37.376-16.896 37.376-37.376V250.88c0.512-20.992-16.384-37.888-37.376-37.888zM571.904 570.368H329.728c-14.336 0-26.112-11.776-26.112-26.112s11.776-26.112 26.112-26.112h242.176c14.336 0 26.112 11.776 26.112 26.112s-11.776 26.112-26.112 26.112z m115.712-128H329.728c-14.336 0-26.112-11.776-26.112-26.112s11.776-26.112 26.112-26.112h357.888c14.336 0 26.112 11.776 26.112 26.112s-11.264 26.112-26.112 26.112z"
          fill="#707070" p-id="8102"></path>
</svg>