<?xml version="1.0" standalone="no"?><!DOCTYPE svg PUBLIC "-//W3C//DTD SVG 1.1//EN" "http://www.w3.org/Graphics/SVG/1.1/DTD/svg11.dtd"><svg t="1584938863982" class="icon" viewBox="0 0 1024 1024" version="1.1" xmlns="http://www.w3.org/2000/svg" p-id="9439" xmlns:xlink="http://www.w3.org/1999/xlink" width="200" height="200"><defs><style type="text/css"></style></defs><path d="M512 69.632c-245.248 0-444.928 199.68-444.928 444.928S266.752 959.488 512 959.488c245.76 0 444.928-199.68 444.928-444.928S757.248 69.632 512 69.632z m228.352 387.584l-209.408 209.408c-5.632 5.12-12.288 7.68-18.944 7.68s-13.312-2.56-17.92-7.68L284.672 457.216c-10.24-10.24-10.24-26.112 0-36.352s26.112-10.24 36.352 0l191.488 191.491413 191.488-191.491413c10.24-10.24 26.108587-10.24 36.348587 0s10.243413 26.112 0.003413 36.352z" p-id="9440" fill="#8a8a8a"></path></svg>