<?xml version="1.0" standalone="no"?><!DOCTYPE svg PUBLIC "-//W3C//DTD SVG 1.1//EN" "http://www.w3.org/Graphics/SVG/1.1/DTD/svg11.dtd"><svg t="1584944569317" class="icon" viewBox="0 0 1024 1024" version="1.1" xmlns="http://www.w3.org/2000/svg" p-id="7649" xmlns:xlink="http://www.w3.org/1999/xlink" width="200" height="200"><defs><style type="text/css"></style></defs><path d="M845.813 91.92h-59.65c-10.882-36.861-45.033-63.84-85.373-63.84H323.21c-40.34 0-74.491 26.98-85.372 63.841h-59.651C113.019 91.92 60 144.939 60 210.108v667.625c0 65.169 53.019 118.188 118.187 118.188h667.625c65.169 0 118.188-53.019 118.188-118.188V210.108c0-65.169-53.019-118.188-118.187-118.188zM294.21 117.08c0-15.991 13.009-29 29-29h377.58c15.99 0 29 13.009 29 29v9.682c0 15.991-13.01 29-29 29H323.21c-15.99 0-29-13.009-29-29v-9.682zM904 877.733c0 32.085-26.103 58.188-58.188 58.188H178.187c-32.084 0-58.187-26.103-58.187-58.188V210.108c0-32.084 26.103-58.188 58.187-58.188h59.65c10.881 36.861 45.033 63.841 85.373 63.841h377.58c40.34 0 74.492-26.98 85.373-63.841h59.649c32.085 0 58.188 26.103 58.188 58.188v667.625z" p-id="7650" fill="#8a8a8a"></path><path d="M511.304 715.7c-10.558 0-18.971 3.327-25.222 9.972-7.039 6.259-10.558 14.471-10.558 24.635 0 9.779 3.519 18.184 10.558 25.222 6.645 6.654 15.049 9.972 25.222 9.972 9.385 0 17.79-3.317 25.222-9.972 6.645-6.645 9.972-15.049 9.972-25.222 0-9.77-3.327-17.981-9.972-24.635-6.653-6.645-15.057-9.972-25.222-9.972zM609.846 389.575c-21.903-20.722-52.011-31.087-90.329-31.087-41.454 0-74.3 12.904-98.542 38.712-23.077 25.029-34.606 57.876-34.606 98.542h46.924c0-28.155 6.251-50.636 18.77-67.454 14.463-19.155 36.165-28.741 65.109-28.741 25.02 0 44.376 6.846 58.068 20.529 12.904 12.904 19.356 31.088 19.356 54.55 0 16.039-5.673 31.481-17.01 46.338-5.481 6.26-12.126 13.298-19.943 21.115-32.462 28.549-52.204 51.232-59.243 68.041-7.433 14.472-11.145 31.481-11.145 51.03v13.491h47.512V661.15c0-16.424 3.711-30.886 11.145-43.405 5.865-10.943 14.855-21.501 26.981-31.674 26.587-23.462 42.616-38.511 48.097-45.165 14.463-19.942 21.703-42.818 21.703-68.627 0-35.193-10.952-62.761-32.847-82.704z" p-id="7651" fill="#8a8a8a"></path></svg>