<?xml version="1.0" standalone="no"?><!DOCTYPE svg PUBLIC "-//W3C//DTD SVG 1.1//EN" "http://www.w3.org/Graphics/SVG/1.1/DTD/svg11.dtd"><svg t="1584975373257" class="icon" viewBox="0 0 1024 1024" version="1.1" xmlns="http://www.w3.org/2000/svg" p-id="1895" xmlns:xlink="http://www.w3.org/1999/xlink" width="200" height="200"><defs><style type="text/css"></style></defs><path d="M452.392893 733.826752v-15.724574H268.269099v-89.776349h204.602309A284.322244 284.322244 0 0 1 530.284389 538.549481H268.269099v-89.776348h379.583909v15.724574a281.396742 281.396742 0 0 1 193.265988 6.399536v-201.128276L551.128592 0.074235H171.544683a93.067538 93.067538 0 0 0-96.724416 89.776348v718.027943a93.067538 93.067538 0 0 0 96.724416 89.593504H504.686245a282.310961 282.310961 0 0 1-52.293352-163.645278zM502.857806 69.189224l262.380977 248.484842H502.857806z" p-id="1896" fill="#8a8a8a"></path><path d="M735.800917 450.418727a283.408024 283.408024 0 1 0 283.408025 283.408025 283.408024 283.408024 0 0 0-283.408025-283.408025z m0 480.148047A196.740022 196.740022 0 1 1 932.540939 733.826752a196.740022 196.740022 0 0 1-196.740022 196.740022z" p-id="1897" fill="#8a8a8a"></path><path d="M699.23214 581.517794m36.568777 0l0 0q36.568777 0 36.568778 36.568778l0 109.706332q0 36.568777-36.568778 36.568777l0 0q-36.568777 0-36.568777-36.568777l0-109.706332q0-36.568777 36.568777-36.568778Z" p-id="1898" fill="#8a8a8a"></path><path d="M699.23214 812.998155m36.568777 0l0 0q36.568777 0 36.568778 36.568777l0 0q0 36.568777-36.568778 36.568777l0 0q-36.568777 0-36.568777-36.568777l0 0q0-36.568777 36.568777-36.568777Z" p-id="1899" fill="#8a8a8a"></path></svg>