<?xml version="1.0" standalone="no"?><!DOCTYPE svg PUBLIC "-//W3C//DTD SVG 1.1//EN" "http://www.w3.org/Graphics/SVG/1.1/DTD/svg11.dtd"><svg t="1584931445921" class="icon" viewBox="0 0 1024 1024" version="1.1" xmlns="http://www.w3.org/2000/svg" p-id="7444" xmlns:xlink="http://www.w3.org/1999/xlink" width="200" height="200"><defs><style type="text/css"></style></defs><path d="M893.6 97.28c-13.44-6.72-28.32-5.28-40.32 3.84-32.16 24.96-85.44 38.88-147.84 38.88-60.48 0-108.48-12.96-149.76-40.32C502.88 64.16 440.96 32 340.16 32 240.8 32.96 158.24 68.96 121.76 104c-7.68 7.68-12 17.28-12 27.84V953.6c0 9.6 3.84 20.16 11.04 26.88 7.68 7.68 16.32 11.04 26.88 11.04s19.68-3.84 26.88-11.04c7.68-7.68 11.04-16.32 11.04-26.88v-302.4c27.84-19.68 84-41.28 154.56-41.28 75.84 0 123.84 21.6 172.32 54.72 53.76 36 117.12 53.28 192 53.28 79.2 0 148.32-19.68 193.92-54.72 9.12-7.68 14.88-18.72 14.88-29.76V131.84c0.96-14.4-7.2-27.84-19.68-34.56z" p-id="7445" fill="#8a8a8a"></path></svg>