<?xml version="1.0" standalone="no"?><!DOCTYPE svg PUBLIC "-//W3C//DTD SVG 1.1//EN" "http://www.w3.org/Graphics/SVG/1.1/DTD/svg11.dtd"><svg t="1584800314755" class="icon" viewBox="0 0 1024 1024" version="1.1" xmlns="http://www.w3.org/2000/svg" p-id="17703" xmlns:xlink="http://www.w3.org/1999/xlink" width="200" height="200"><defs><style type="text/css"></style></defs><path d="M512 515.909818m-465.454545 0a465.454545 465.454545 0 1 0 930.90909 0 465.454545 465.454545 0 1 0-930.90909 0Z" fill="#0BCE0B" p-id="17704"></path><path d="M628.084364 411.042909c6.981818 0 14.196364 0 21.829818 1.163636-20.619636-93.323636-119.901091-161.838545-233.332364-161.838545C289.512727 250.368 186.181818 337.221818 186.181818 445.905455c0 62.603636 33.698909 115.758545 91.554909 155.927272l-23.04 69.073455 80.942546-39.517091c28.951273 5.864727 51.991273 11.776 80.942545 11.776 7.074909 0 14.801455 0 23.086546-1.163636a164.538182 164.538182 0 0 1-7.074909-48.360728c-0.046545-100.491636 85.597091-182.597818 195.490909-182.597818z m-124.648728-63.208727c18.292364 0 28.904727 11.822545 28.904728 28.951273 0 17.175273-11.822545 28.951273-28.904728 28.951272-18.385455 0-34.909091-11.776-34.909091-28.951272 0-17.733818 18.292364-28.951273 34.909091-28.951273zM343.924364 402.199273c-18.292364 0-35.421091-11.822545-35.421091-28.346182 0-17.733818 18.338909-28.346182 35.421091-28.346182 17.128727 0 28.951273 11.822545 28.951272 28.346182-0.046545 16.523636-11.822545 28.346182-28.951272 28.346182z m0 0" fill="#FFFFFF" p-id="17705"></path><path d="M837.818182 590.615273c0-92.718545-91.554909-167.749818-195.537455-167.749818-109.893818 0-196.747636 76.241455-196.747636 167.749818 0 92.718545 86.807273 167.749818 196.747636 167.749818 22.993455 0 46.08-5.911273 69.073455-11.776l62.650182 34.862545-17.175273-57.902545c46.173091-34.862545 80.989091-80.896 80.989091-132.933818z m-259.351273-28.951273c-10.658909 0-22.993455-10.658909-22.993454-23.04 0-10.612364 11.729455-22.993455 22.993454-22.993455 17.175273 0 28.904727 11.776 28.904727 22.993455 0 12.427636-11.170909 23.04-28.904727 23.04z m131.072-5.306182c-10.658909 0-22.993455-10.658909-22.993454-22.434909 0-10.612364 12.381091-22.434909 22.993454-22.434909 17.175273 0 28.997818 11.869091 28.997818 22.434909 0.558545 11.822545-11.822545 22.434909-28.997818 22.434909z m0 0" fill="#FFFFFF" p-id="17706"></path></svg>