<?xml version="1.0" standalone="no"?><!DOCTYPE svg PUBLIC "-//W3C//DTD SVG 1.1//EN" "http://www.w3.org/Graphics/SVG/1.1/DTD/svg11.dtd"><svg t="1585023809682" class="icon" viewBox="0 0 1024 1024" version="1.1" xmlns="http://www.w3.org/2000/svg" p-id="2415" xmlns:xlink="http://www.w3.org/1999/xlink" width="200" height="200"><defs><style type="text/css"></style></defs><path d="M601.45152 739.04128c-163.08224 0-295.72096-132.63872-295.72096-295.71584S438.41536 147.6096 601.45152 147.6096c163.07712 0 295.75168 132.63872 295.71584 295.71584 0 163.07712-132.64384 295.71584-295.71584 295.71584zM179.6096 443.32032c0 83.16928 24.19712 160.78848 65.90976 226.18624L178.76992 736.256l-60.84608-60.84608c-24.69376-24.68864-64.72192-24.68864-89.41056 0l0.22528-0.23552c-24.68864 24.69888-24.69376 64.72192 0 89.42592l60.84608 60.84608-70.8096 70.8096c-24.68352 24.68352-24.68352 64.7168 0 89.40544l-0.22528-0.23552c24.68864 24.69888 64.72704 24.68864 89.40544 0.00512l70.8096-70.80448 54.99904 54.99904c24.69888 24.69376 64.73216 24.69888 89.4208 0.01024l-0.2304 0.2304c24.68864-24.68864 24.6784-64.7424-0.01024-89.42592l-54.9888-54.99392 60.66176-60.66176c73.60512 62.5664 168.87808 100.3776 272.83456 100.3776 232.6528 0 421.88288-189.24032 421.8368-421.84192 0-232.61696-189.22496-421.8368-421.8368-421.8368-232.61696 0-421.84192 189.22496-421.84192 421.8368z" p-id="2416" fill="#f60723"></path></svg>